<svg xmlns="http://www.w3.org/2000/svg" style="isolation:isolate" width="24" height="24"><path fill="currentColor" xmlns="http://www.w3.org/2000/svg" d=" M 12 2 C 9.477 1.999 7.057 3.001 5.272 4.785 C 3.488 6.57 2.486 8.99 2.487 11.513 C 2.485 15.608 5.106 19.245 8.992 20.538 C 9.467 20.621 9.646 20.336 9.646 20.086 C 9.646 19.86 9.634 19.111 9.634 18.314 C 7.244 18.754 6.625 17.732 6.435 17.196 C 6.328 16.923 5.864 16.079 5.46 15.853 C 5.127 15.674 4.651 15.234 5.448 15.223 C 6.197 15.211 6.732 15.912 6.911 16.198 C 7.767 17.636 9.134 17.232 9.681 16.982 C 9.765 16.364 10.014 15.948 10.288 15.71 C 8.171 15.472 5.959 14.652 5.959 11.013 C 5.946 10.068 6.295 9.153 6.935 8.457 C 6.839 8.219 6.506 7.244 7.03 5.936 C 7.03 5.936 7.826 5.686 9.646 6.911 C 10.42 6.696 11.22 6.588 12.024 6.59 C 12.828 6.588 13.628 6.696 14.402 6.911 C 16.221 5.674 17.018 5.936 17.018 5.936 C 17.541 7.244 17.208 8.219 17.113 8.457 C 17.719 9.123 18.088 9.967 18.088 11.013 C 18.088 14.664 15.865 15.472 13.748 15.71 C 14.093 16.007 14.39 16.578 14.39 17.47 C 14.39 18.742 14.378 19.765 14.378 20.086 C 14.378 20.336 14.557 20.633 15.032 20.538 C 18.904 19.231 21.512 15.6 21.513 11.513 C 21.514 8.99 20.512 6.57 18.728 4.785 C 16.943 3.001 14.523 1.999 12 2 L 12 2 Z " fill-rule="evenodd"/></svg>
