<svg xmlns="http://www.w3.org/2000/svg" style="isolation:isolate" width="24" height="24"><defs><clipPath id="a"><path d="M0 0h24v24H0z"/></clipPath></defs><g clip-path="url(#a)"><path d="M21 11.768c0 4.843-3.956 8.768-8.836 8.768a8.854 8.854 0 0 1-4.272-1.091L3 21l1.595-4.704a8.675 8.675 0 0 1-1.268-4.528C3.327 6.926 7.283 3 12.164 3S21 6.926 21 11.768zm-8.836-7.372c-4.097 0-7.43 3.307-7.43 7.372A7.29 7.29 0 0 0 6.15 16.09l-.929 2.738 2.855-.907a7.428 7.428 0 0 0 4.088 1.219c4.096 0 7.429-3.307 7.429-7.371 0-4.065-3.333-7.373-7.429-7.373zm4.462 9.392c-.055-.09-.199-.144-.415-.251-.217-.108-1.282-.628-1.48-.699-.199-.072-.344-.108-.488.107-.144.215-.559.699-.686.843-.126.143-.253.161-.469.054-.217-.108-.915-.335-1.742-1.067-.644-.569-1.079-1.273-1.205-1.488-.126-.215-.013-.331.095-.438.098-.097.217-.251.325-.377.109-.125.145-.215.216-.358.073-.144.037-.269-.018-.377-.054-.107-.487-1.165-.668-1.595-.18-.43-.36-.359-.487-.359-.126 0-.271-.018-.415-.018a.801.801 0 0 0-.578.269c-.198.215-.758.735-.758 1.793 0 1.057.776 2.079.885 2.222.108.144 1.498 2.384 3.7 3.245 2.202.86 2.202.573 2.599.537.397-.036 1.281-.52 1.463-1.021.18-.503.18-.933.126-1.022z"/></g></svg>