<svg xmlns="http://www.w3.org/2000/svg" style="isolation:isolate" width="24" height="24"><defs><clipPath id="a"><path d="M0 0h24v24H0z"/></clipPath></defs><g clip-path="url(#a)"><mask id="b"><path d="M20 5.5H4c-.664.033-.987.389-1 1.038l9 7.166 9-7.076c-.039-.71-.362-1.076-1-1.128z" fill="#fff"/></mask><path d="M20 5.5H4c-.664.033-.987.389-1 1.038l9 7.166 9-7.076c-.039-.71-.362-1.076-1-1.128z" mask="url(#b)" vector-effect="non-scaling-stroke" stroke-width="2" stroke="#fff" fill="#fff" stroke-linejoin="round" stroke-linecap="round"/><mask id="c"><path d="M3 7.452V18c.011.501.071.525 1 .5h16c.946-.023.958-.011 1-.5V7.543l-8.775 6.906a.37.37 0 0 1-.225.079.365.365 0 0 1-.225-.079L3 7.452z" fill="#fff"/></mask><path d="M3 7.452V18c.011.501.071.525 1 .5h16c.946-.023.958-.011 1-.5V7.543l-8.775 6.906a.37.37 0 0 1-.225.079.365.365 0 0 1-.225-.079L3 7.452z" mask="url(#c)" vector-effect="non-scaling-stroke" stroke-width="2" stroke="#fff" fill="#fff" stroke-linejoin="round" stroke-linecap="round"/></g></svg>