<svg xmlns="http://www.w3.org/2000/svg" style="isolation:isolate" width="24" height="24"><defs><clipPath id="a"><path d="M0 0h24v24H0z"/></clipPath></defs><g clip-path="url(#a)"><path d="M12 2a9.51 9.51 0 0 0-9.513 9.513 9.507 9.507 0 0 0 6.505 9.025c.475.083.654-.202.654-.452 0-.226-.012-.975-.012-1.772-2.39.44-3.009-.582-3.199-1.118-.107-.273-.571-1.117-.975-1.343-.333-.179-.809-.619-.012-.63.749-.012 1.284.689 1.463.975.856 1.438 2.223 1.034 2.77.784.084-.618.333-1.034.607-1.272-2.117-.238-4.329-1.058-4.329-4.697a3.7 3.7 0 0 1 .976-2.556c-.096-.238-.429-1.213.095-2.521 0 0 .796-.25 2.616.975a8.825 8.825 0 0 1 2.378-.321 8.83 8.83 0 0 1 2.378.321c1.819-1.237 2.616-.975 2.616-.975.523 1.308.19 2.283.095 2.521.606.666.975 1.51.975 2.556 0 3.651-2.223 4.459-4.34 4.697.345.297.642.868.642 1.76 0 1.272-.012 2.295-.012 2.616 0 .25.179.547.654.452a9.528 9.528 0 0 0 6.481-9.025A9.51 9.51 0 0 0 12 2z" fill-rule="evenodd" fill="#FFF"/></g></svg>