<svg xmlns="http://www.w3.org/2000/svg" style="isolation:isolate" width="16.29" height="24"><defs><clipPath id="a"><path d="M0 0h16.29v24H0z"/></clipPath></defs><g clip-path="url(#a)"><path fill="none" d="M0 0h16.29v24H0z"/><path d="M8.145 0C3.654 0 0 3.654 0 8.145c0 1.805 1.063 4.55 3.344 8.638a92.13 92.13 0 0 0 3.172 5.245l1.12 1.698a.61.61 0 0 0 1.019 0l1.12-1.698c.064-.098 1.603-2.434 3.171-5.245 2.282-4.088 3.344-6.833 3.344-8.638C16.29 3.654 12.636 0 8.145 0zm3.736 16.188a90.427 90.427 0 0 1-3.125 5.168l-.611.926-.61-.926a91.14 91.14 0 0 1-3.125-5.168C2.294 12.396 1.221 9.69 1.221 8.145a6.932 6.932 0 0 1 6.924-6.924c3.818 0 6.925 3.106 6.925 6.924 0 1.545-1.073 4.251-3.189 8.043zM8.145 3.578a4.521 4.521 0 0 0-4.516 4.516 4.521 4.521 0 0 0 4.516 4.516 4.521 4.521 0 0 0 4.516-4.516 4.521 4.521 0 0 0-4.516-4.516zm0 7.812A3.3 3.3 0 0 1 4.85 8.094a3.299 3.299 0 0 1 3.295-3.295 3.3 3.3 0 0 1 3.296 3.295 3.3 3.3 0 0 1-3.296 3.296z" fill-rule="evenodd" fill="#FFF"/></g></svg>