<svg xmlns="http://www.w3.org/2000/svg" style="isolation:isolate" width="24" height="24"><path fill="currentColor" xmlns="http://www.w3.org/2000/svg" d=" M 12 0 C 7.509 0 3.855 3.654 3.855 8.145 C 3.855 9.95 4.918 12.695 7.199 16.783 C 8.198 18.566 9.256 20.315 10.371 22.028 L 11.491 23.726 C 11.604 23.897 11.795 24.001 12.001 24.001 C 12.206 24.001 12.397 23.897 12.51 23.726 L 13.63 22.028 C 13.694 21.93 15.233 19.594 16.801 16.783 C 19.083 12.695 20.145 9.95 20.145 8.145 C 20.145 3.654 16.491 0 12 0 Z  M 15.736 16.188 C 14.752 17.945 13.71 19.669 12.611 21.356 L 12 22.282 L 11.39 21.356 C 10.292 19.668 9.249 17.945 8.265 16.188 C 6.149 12.396 5.076 9.69 5.076 8.145 C 5.08 4.323 8.178 1.225 12 1.221 C 15.818 1.221 18.925 4.327 18.925 8.145 C 18.925 9.69 17.852 12.396 15.736 16.188 Z  M 12 3.578 C 9.507 3.581 7.487 5.601 7.484 8.094 C 7.487 10.587 9.507 12.607 12 12.61 C 14.493 12.607 16.513 10.587 16.516 8.094 C 16.513 5.601 14.493 3.581 12 3.578 L 12 3.578 Z  M 12 11.39 C 10.181 11.387 8.707 9.913 8.705 8.094 C 8.707 6.275 10.181 4.801 12 4.799 C 13.819 4.801 15.293 6.275 15.296 8.094 C 15.294 9.913 13.819 11.388 12 11.39 L 12 11.39 Z " fill-rule="evenodd"/></svg>
