<svg xmlns="http://www.w3.org/2000/svg" style="isolation:isolate" width="172" height="1124"><defs><clipPath id="a"><path d="M0 0h172v1124H0z"/></clipPath></defs><g clip-path="url(#a)"><path fill="none" d="M0 0h172v1124H0z"/><path d="M9.101 129.813L0 27.739h100l-9.11 102.058-40.951 11.353-40.838-11.337z" fill="#6C6C6C"/><path d="M50 132.473l33.09-9.174 7.786-87.214H50v96.388z" fill="#919191"/><path d="M50 73.943H33.434L32.29 61.124H50v-12.52H18.608l.3 3.359 3.077 34.499H50V73.943zm0 32.513l-.055.015-13.942-3.765-.892-9.984H22.544l1.754 19.656 25.644 7.119.058-.016v-13.025z" fill-rule="evenodd" fill="#EBEBEB"/><path d="M9.304 0h6.362v6.286h5.82V0h6.362v19.034h-6.362v-6.373h-5.82v6.373H9.304V0zm26.91 6.312h-5.601V0H48.18v6.312h-5.603v12.722h-6.363V6.312zM50.968 0h6.634l4.08 6.688L65.759 0h6.636v19.034h-6.336V9.6l-4.377 6.768h-.109L57.193 9.6v9.434h-6.225V0zm24.593 0h6.364v12.743h8.947v6.291H75.561V0zM49.957 73.943v12.519h15.415l-1.453 16.236-13.962 3.769v13.024l25.664-7.113.189-2.115 2.941-32.958.306-3.362H49.957zm0-25.339V61.124h30.239l.251-2.814.57-6.347.3-3.359h-31.36z" fill-rule="evenodd" fill="#FFF"/><path d="M100 177.739l-9.11 102.058-40.951 11.353-40.838-11.337L0 177.739h100z" fill="#6C6C6C"/><path d="M83.09 273.299l7.786-87.214H50v96.388l33.09-9.174z" fill="#919191"/><path d="M20.863 223.943l1.122 12.519H50v-12.519H20.863zM50 198.604H18.608l1.138 12.52H50v-12.52zm0 70.877v-13.025l-.055.015-13.942-3.765-.892-9.984H22.544l1.754 19.656 25.644 7.119.058-.016z" fill-rule="evenodd" fill="#EBEBEB"/><path d="M23.534 150h15.163v6.341h-8.822v6.34h8.822v6.341H23.534V150zm18.195 0h15.163v5.514H48.07v1.102h8.822v12.682H41.729v-5.789h8.822v-1.103h-8.822V150zm18.196 0h15.162v5.514h-8.822v1.102h8.822v12.682H59.925v-5.789h8.822v-1.103h-8.822V150z" fill-rule="evenodd" fill="#FFF"/><path d="M65.372 236.462l-1.453 16.236-13.962 3.769v13.024l25.664-7.113.189-2.115 2.941-32.958.306-3.362 2.26-25.339h-31.36v12.52h17.64l-1.139 12.819H49.957v12.519h15.415z" fill="#FFF"/><g><path fill="#6C6C6C" d="M0 300h100v100H0z"/><path d="M67.175 378.125c2.014 3.289 4.635 5.707 9.269 5.707 3.894 0 6.381-1.946 6.381-4.635 0-3.222-2.555-4.364-6.841-6.238l-2.349-1.008c-6.781-2.889-11.286-6.508-11.286-14.159 0-7.048 5.37-12.413 13.762-12.413 5.975 0 10.27 2.08 13.365 7.524l-7.317 4.699c-1.611-2.889-3.349-4.027-6.048-4.027-2.752 0-4.497 1.746-4.497 4.027 0 2.819 1.746 3.96 5.778 5.706l2.349 1.006c7.984 3.424 12.492 6.915 12.492 14.762 0 8.461-6.646 13.095-15.571 13.095-8.727 0-14.365-4.158-17.124-9.609l7.637-4.437zm-33.196.815c1.477 2.619 2.819 4.833 6.048 4.833 3.087 0 5.035-1.208 5.035-5.905v-31.952h9.397v32.079c0 9.73-5.705 14.159-14.032 14.159-7.524 0-11.881-3.894-14.097-8.583l7.649-4.631z" fill="#FFF"/></g><g><path d="M50 450L0 467.83l7.626 66.112L50 557.411l42.374-23.469L100 467.83 50 450z" fill="#6C6C6C"/><path d="M50 450v11.923-.054 95.542l42.374-23.469L100 467.83 50 450z" fill="#919191"/><path d="M50 461.869l-31.257 70.086h11.654l6.284-15.682h26.531l6.283 15.682h11.654L50 461.869zm9.13 44.737H40.87L50 484.64l9.13 21.966z" fill="#FFF"/></g><g><path d="M158.619 659.881c0 7.865-6.435 14.3-14.3 14.3H24.129c-7.865 0-14.3-6.435-14.3-14.3v-45.54c0-7.865 6.435-14.3 14.3-14.3h120.19c7.865 0 14.3 6.435 14.3 14.3v45.54z" fill="#6C6C6C"/><path d="M162.326 641.786c-2.001 1.748-3.163 4.265-3.163 7.555v12.252c0 4.072-1.252 7.17-4.08 9.3-2.825 2.127-6.119 3.18-9.879 3.281l-2.228-.017v-6.105c1.964-.573 2.771-1.239 3.552-1.996 1.417-1.279 2.501-3.362 2.501-6.254v-9.891c.053-3.362.312-5.997 1.536-7.9 1.228-1.903 3.62-3.566 7.174-5.003-3.926-1.797-6.562-4.144-7.906-7.039-.79-1.719-.805-4.039-.805-6.958v-9.071c0-2.996-.981-5.095-2.187-6.293-.784-.782-1.697-1.406-3.868-1.877v-5.732c2.655.028 3.996-.002 5.543 0 2.381-.019 4.376 1.283 6.112 2.639 1.891 1.487 3.234 3.497 4.022 6.027.447 1.462.511 2.859.511 4.189v10.491c0 3.705 1.095 6.46 2.966 8.258 1.055 1.044 2.543 1.998 5.098 2.859v4.739c-2.264.626-3.686 1.475-4.899 2.546zM21.467 600.042v.008c-.76-.004-1.449-.007-2-.006-2.383-.021-4.377 1.281-6.112 2.639-1.893 1.487-3.513 3.427-4.021 6.027-.289 1.525-.228 2.857-.228 4.189v10.491c0 3.704-1.379 6.457-3.248 8.258-1.053 1.043-3.301 1.996-5.858 2.857v4.739c2.266.625 4.447 1.471 5.657 2.545 2.003 1.749 3.447 4.267 3.447 7.557v12.252c0 4.07.971 7.171 3.796 9.297 2.825 2.126 6.118 3.183 9.878 3.286l2.516-.017v-6.109c-1.963-.575-3.053-1.241-3.839-1.995-1.415-1.281-2.216-3.362-2.216-6.253v-9.892c-.054-3.365-.597-5.997-1.822-7.902-1.226-1.9-3.617-3.566-7.175-5.002 3.927-1.798 6.562-4.144 7.905-7.037.792-1.72 1.092-4.041 1.092-6.959v-9.071c0-2.996.696-5.095 1.9-6.294.654-.651 1.817-1.187 3.432-1.62l2.554.017v-6.006h-5.657v.001h-.001z" fill-rule="evenodd" vector-effect="non-scaling-stroke" stroke-width="5.151" stroke="#FFF" stroke-miterlimit="10"/><path d="M133.476 636.138c6.282 2.198 9.422 5.964 9.422 11.291 0 3.507-1.302 6.291-3.901 8.349-2.595 2.06-6.298 3.339-11.118 3.339s-9.278-1.397-13.384-3.689c.044-1.216.365-2.55.955-3.998.59-1.448 1.288-2.598 2.088-3.439 3.774 1.962 7.058 2.944 9.846 2.944 1.317 0 2.337-.221 3.046-.666.711-.444 1.064-1.04 1.064-1.788 0-1.406-1.089-2.458-3.26-3.159l-3.901-1.473c-5.9-2.15-8.851-5.654-8.851-10.522 0-3.554 1.24-6.37 3.719-8.454 2.479-2.081 5.82-3.873 10.021-3.873 2.078 0 4.366.292 6.87.876 2.501.586 4.555 2.029 6.161 2.821.094 1.311-.169 2.749-.779 4.315-.615 1.568-1.369 2.678-2.269 3.333-3.968-1.778-7.271-2.667-9.916-2.667-.948 0-1.661.211-2.162.633-.495.422-.739.959-.739 1.614 0 1.123.896 2.01 2.692 2.665l4.396 1.548zm-31.375 0c6.281 2.198 9.42 5.964 9.42 11.291 0 3.507-1.302 6.291-3.897 8.349-2.598 2.06-6.302 3.339-11.121 3.339-4.815 0-9.279-1.397-13.384-3.689.044-1.216.366-2.55.957-3.998.59-1.448 1.285-2.598 2.088-3.439 3.778 1.962 7.061 2.944 9.847 2.944 1.319 0 2.338-.221 3.045-.666.708-.444 1.064-1.04 1.064-1.788 0-1.406-1.089-2.458-3.26-3.159l-3.898-1.473c-5.902-2.15-8.854-5.654-8.854-10.522 0-3.554 1.239-6.37 3.721-8.454 2.477-2.081 5.817-3.873 10.018-3.873 2.077 0 4.371.292 6.869.876 2.504.586 4.556 2.029 6.162 2.821.095 1.311-.168 2.749-.779 4.315-.613 1.568-1.368 2.678-2.267 3.333-3.97-1.778-7.272-2.667-9.919-2.667-.946 0-1.663.211-2.161.633-.494.422-.74.959-.74 1.614 0 1.123.897 2.01 2.693 2.665l4.396 1.548zm-42.282.981c.141-2.387.576-4.941 1.301-5.992.726-1.053 1.837-1.579 3.338-1.579 1.546 0 2.706.559 3.478 1.682.773 1.122 1.16 3.384 1.16 5.114l.001.775h-9.278zm19.401-.486c0-2.15-.342-4.138-1.027-5.963-.683-1.825-1.663-3.39-2.938-4.7-1.275-1.31-2.821-2.339-4.637-3.087-1.82-.747-3.862-1.874-6.128-1.874-2.692 0-5.041 1.219-7.047 2.155-2.006.935-3.658 2.22-4.956 3.857-1.301 1.639-2.269 3.567-2.906 5.788-.637 2.222-.956 4.642-.956 7.26 0 2.71.259 5.216.779 7.507.519 2.289 1.405 4.275 2.656 5.961 1.252 1.683 2.881 2.992 4.888 3.925a17.522 17.522 0 0 0 7.472 1.653c5.477 0 10.103-1.586 13.881-4.25-.374-2.709-1.339-4.864-2.89-6.454-1.93.724-3.636 1.243-5.116 1.562-1.482.315-2.788.473-3.916.473-2.258 0-3.882-.574-4.868-1.734-.986-1.156-1.526-2.524-1.622-4.601h18.415c.608-1.966.916-4.624.916-7.478zm-34.207 13.115h-1.912c-2.08 0-2.863-1.093-2.863-3.29v-40.365c0-2.428-.701-4.132-1.598-5.114-.898-.979-2.455-.969-4.674-.969h-4.319l-.509-.01v.042l-.005 6.007v42.362c0 3.369.757 5.834 2.104 7.403 1.347 1.567 3.625 2.348 6.835 2.348 2.22 0 4.746-.233 7.578-.702.142-.473.213-1.486.213-3.039 0-1.558-.283-3.112-.85-4.673z" fill-rule="evenodd" fill="#F6F6F6"/></g><g><path fill="#FFF" d="M0 750h100v100H0z"/><path d="M0 800v50h100V750H0v50zm80.587-3.984c2.54.635 4.476 1.762 6.254 3.603.921.984 2.286 2.778 2.397 3.206.032.127-4.317 3.048-6.952 4.683-.096.063-.476-.349-.905-.984-1.286-1.873-2.635-2.683-4.698-2.826-3.032-.206-4.985 1.381-4.969 4.032 0 .778.111 1.238.429 1.873.667 1.381 1.905 2.207 5.794 3.889 7.158 3.079 10.222 5.111 12.126 8 2.127 3.222 2.604 8.365 1.159 12.191-1.587 4.158-5.524 6.984-11.063 7.92-1.715.302-5.778.254-7.619-.079-4.016-.714-7.826-2.699-10.175-5.302-.921-1.016-2.714-3.666-2.603-3.857.048-.063.46-.317.921-.587.444-.254 2.127-1.222 3.714-2.143l2.873-1.667.603.889c.841 1.286 2.683 3.048 3.794 3.635 3.19 1.683 7.571 1.445 9.73-.492.92-.841 1.301-1.714 1.301-3 0-1.159-.142-1.667-.746-2.54-.777-1.111-2.365-2.047-6.873-4-5.158-2.222-7.381-3.603-9.412-5.793-1.175-1.27-2.286-3.302-2.746-5-.381-1.413-.477-4.953-.175-6.381 1.064-4.984 4.825-8.461 10.254-9.492 1.762-.334 5.857-.207 7.587.222zm-23.476 4.174l.032 4.096H44.127v36.984h-9.206v-36.984H21.905v-4.016c0-2.222.047-4.08.111-4.127.047-.064 7.968-.095 17.571-.08l17.476.048.048 4.079z" fill="#6C6C6C"/></g><g><path fill="#FFF" d="M43.649 903.768l49.227 49.227-39.392 39.391L4.257 943.16z"/><path d="M98.114 945.545l-43.661-43.659a6.44 6.44 0 0 0-9.108 0l-9.065 9.068 11.5 11.5a7.64 7.64 0 0 1 7.867 1.833 7.65 7.65 0 0 1 1.817 7.918l11.086 11.084a7.648 7.648 0 0 1 7.917 1.818 7.662 7.662 0 0 1 0 10.837 7.664 7.664 0 0 1-12.507-8.334l-10.338-10.337v27.203a7.663 7.663 0 1 1-6.3-.223v-27.457a7.662 7.662 0 0 1-4.161-10.05l-11.336-11.339-29.939 29.935a6.443 6.443 0 0 0 0 9.11l43.663 43.66a6.44 6.44 0 0 0 9.108 0l43.457-43.457a6.443 6.443 0 0 0 0-9.11z" fill="#6C6C6C"/></g><g><path fill="transparent" vector-effect="non-scaling-stroke" stroke="#6C6C6C" stroke-linejoin="round" stroke-linecap="round" stroke-miterlimit="2" d="M-.5 1049.5h172.806v74.264H-.5z"/><path fill="#6C6C6C" d="M0 1050h171.806v73.264H0z"/><path d="M56.987 1050a11.59 11.59 0 0 0-11.615 11.616v28.752l-.384-.001-5.679-4.866-4.466 4.65 14.683 14.683 14.928-14.683-5.139-4.65-4.862 4.887h-.542v-28.038a6.41 6.41 0 0 1 6.425-6.425h5.105a6.41 6.41 0 0 1 6.424 6.425v2.993h9.926v-3.727A11.59 11.59 0 0 0 70.176 1050H56.987zm19.915 18.43l-14.928 14.683 5.139 4.65 4.862-4.887.542.001v28.037a6.41 6.41 0 0 1-6.425 6.425h-5.105a6.41 6.41 0 0 1-6.424-6.425v-2.993h-9.927v3.727a11.59 11.59 0 0 0 11.616 11.616h13.189a11.59 11.59 0 0 0 11.615-11.616v-28.752l.384.001 5.679 4.866 4.466-4.65-14.683-14.683zm52.757 15.914l14.508 18.406-16.067 19.457h13.309l8.873-12.803 9.053 12.803h12.471l-15.768-19.637 14.808-18.226h-12.29l-8.453 11.991-7.974-11.991h-12.47zm-112.871.13L0 1122.077h10.98l3.264-7.97h16.873l3.264 7.97h10.98l-16.83-37.603H16.788zm81.426 0l-16.788 37.603h10.98l3.264-7.97h16.873l3.264 7.97h10.98l-16.83-37.603H98.214zm-75.463 8.866l2.848 7.15 2.849 7.151-5.68.014-5.68.014 2.831-7.165 2.832-7.164zm81.426 0l2.848 7.15 2.849 7.151-5.68.014-5.68.014 2.831-7.165 2.832-7.164z" fill-rule="evenodd" fill="#F6F6F6" vector-effect="non-scaling-stroke" stroke-width=".5" stroke="#000"/></g></g></svg>