<svg xmlns="http://www.w3.org/2000/svg" style="isolation:isolate" width="24" height="24"><defs><clipPath id="a"><path d="M0 0h24v24H0z"/></clipPath></defs><g clip-path="url(#a)"><path d="M5.44 4v5.017c.785-.91 1.727-1.369 2.819-1.369.562 0 1.066.104 1.517.312.453.205.792.47 1.02.791.23.323.386.678.47 1.069.083.389.125.994.125 1.815V17h-2.44v-4.832c0-.958-.044-1.566-.137-1.824a1.194 1.194 0 0 0-.49-.615c-.235-.153-.528-.23-.881-.23-.404 0-.767.099-1.083.294-.32.196-.553.49-.699.883-.149.394-.223.974-.221 1.743L5.438 17H3V4h2.44zm9.609 0v5.017c.785-.91 1.726-1.369 2.818-1.369.561 0 1.067.104 1.52.312.451.205.79.47 1.018.791.23.323.386.678.469 1.069.084.389.126.994.126 1.815V17h-2.438v-4.832c0-.958-.046-1.566-.139-1.824a1.19 1.19 0 0 0-.491-.615c-.232-.153-.527-.23-.88-.23-.405 0-.767.099-1.083.294-.318.196-.551.49-.7.883-.146.394-.22.974-.22 1.743V17h-2.438V4h2.438z" fill-rule="evenodd" fill="#FFF"/></g></svg>