<svg xmlns="http://www.w3.org/2000/svg" style="isolation:isolate" width="24" height="24"><path fill="currentColor" xmlns="http://www.w3.org/2000/svg" d=" M 20.023 15.488 C 19.393 15.473 18.6 15.436 18.099 15.348 C 17.54 15.239 16.988 15.097 16.446 14.923 C 16.086 14.812 15.694 14.909 15.427 15.176 L 13.21 17.38 C 11.808 16.65 10.527 15.708 9.412 14.588 C 8.292 13.473 7.35 12.192 6.62 10.79 L 8.824 8.572 C 9.09 8.305 9.189 7.913 9.077 7.553 C 8.935 7.095 8.748 6.443 8.653 5.901 C 8.564 5.4 8.528 4.607 8.512 3.977 C 8.499 3.433 8.054 2.999 7.51 3 L 4 3 C 3.562 3 3 3.328 3 4 C 3 8.539 4.84 12.874 7.966 16.034 C 11.126 19.16 15.461 21 20 21 C 20.672 21 21 20.438 21 20 L 21 16.49 C 21.001 15.946 20.567 15.501 20.023 15.488 L 20.023 15.488 Z "/></svg>
