<svg xmlns="http://www.w3.org/2000/svg" style="isolation:isolate" width="24" height="24"><defs><clipPath id="a"><path d="M0 0h24v24H0z"/></clipPath></defs><g clip-path="url(#a)"><path d="M19.469 4.501a2.37 2.37 0 0 0-.708.156c-.194.071-.889.341-1.997.771l-4.139 1.608-8.445 3.288c-.062.024-.314.095-.591.291-.278.197-.587.623-.587 1.09 0 .376.203.759.448.979.245.219.494.322.701.398v-.002l3.298 1.22c.177.491.937 2.592 1.118 3.12h-.002c.128.374.252.618.425.821.087.102.19.194.317.267a1 1 0 0 0 .156.07l.023.007-.021-.005c.016.005.03.014.046.019.026.008.044.008.079.015.123.035.246.058.36.058.489 0 .789-.245.789-.245l.019-.013 2.113-1.654 2.587 2.215c.048.062.418.525 1.275.525a1.71 1.71 0 0 0 1.174-.48c.258-.245.42-.497.492-.837l.002-.002c.058-.275 2.534-11.78 2.534-11.78l-.005.019c.077-.318.1-.626.009-.94a1.364 1.364 0 0 0-.633-.78 1.584 1.584 0 0 0-.837-.199zm-.355 1.823c-.097.455-2.316 10.767-2.453 11.413l-3.737-3.198-2.526 1.976.7-2.531s4.826-4.519 5.116-4.782c.234-.21.283-.284.283-.357 0-.098-.054-.168-.179-.168-.113 0-.265.1-.346.146-1.029.594-5.413 2.905-7.569 4.039-.129-.048-2.077-.771-3.127-1.159l8.047-3.132 4.137-1.608c.934-.362 1.422-.55 1.654-.639zm-2.48 11.532h.002l-.002.005v-.005z"/></g></svg>