<svg xmlns="http://www.w3.org/2000/svg" style="isolation:isolate" width="24" height="24"><defs><clipPath id="a"><path d="M0 0h24v24H0z"/></clipPath></defs><g clip-path="url(#a)"><path d="M20.905 16.14a1.496 1.496 0 0 0-.061-.117c-.313-.563-.91-1.253-1.79-2.072l-.019-.018-.009-.01-.01-.009h-.009c-.4-.381-.653-.637-.759-.769-.194-.25-.238-.503-.132-.759.075-.194.357-.603.844-1.227.256-.332.459-.597.609-.797 1.081-1.437 1.549-2.355 1.406-2.755l-.056-.094c-.038-.056-.135-.107-.291-.154-.156-.047-.356-.055-.6-.024l-2.699.019a.342.342 0 0 0-.187.005l-.122.028-.047.023-.037.028a.607.607 0 0 0-.197.263 15.267 15.267 0 0 1-1.003 2.108c-.231.388-.443.724-.637 1.008a4.968 4.968 0 0 1-.487.628 3.41 3.41 0 0 1-.357.323c-.106.081-.187.116-.243.103l-.16-.037a.63.63 0 0 1-.21-.23 1.02 1.02 0 0 1-.108-.366 3.846 3.846 0 0 1-.033-.379 8.236 8.236 0 0 1 .005-.45c.006-.194.009-.325.009-.394 0-.237.005-.495.014-.773.01-.278.017-.498.024-.66.006-.163.009-.335.009-.516s-.011-.323-.033-.426a1.404 1.404 0 0 0-.098-.3.505.505 0 0 0-.192-.225 1.1 1.1 0 0 0-.314-.127c-.331-.075-.753-.115-1.265-.122-1.162-.012-1.909.063-2.24.225-.131.069-.25.163-.356.282-.113.137-.128.212-.047.224.375.057.64.191.796.403l.057.113c.043.081.087.225.131.431.044.206.072.434.084.684.031.456.031.847 0 1.171a14.02 14.02 0 0 1-.089.76 1.516 1.516 0 0 1-.239.646.156.156 0 0 1-.047.047.701.701 0 0 1-.253.047c-.087 0-.193-.044-.318-.131a2.257 2.257 0 0 1-.389-.361 4.768 4.768 0 0 1-.455-.642c-.169-.275-.344-.6-.525-.975l-.15-.272a25.266 25.266 0 0 1-.384-.763 15.34 15.34 0 0 1-.431-.97.616.616 0 0 0-.225-.3l-.047-.028a.965.965 0 0 0-.365-.141L3.6 7.335c-.262 0-.441.059-.534.178l-.038.056a.3.3 0 0 0-.028.15c0 .069.019.153.056.253.375.881.783 1.731 1.223 2.549.441.819.823 1.478 1.148 1.977.325.5.656.972.994 1.416.337.443.56.728.67.852.109.126.195.219.257.282l.235.225c.15.149.37.329.66.538.291.21.613.416.966.619s.764.369 1.232.497c.469.128.925.179 1.369.154h1.077c.219-.018.385-.087.497-.206l.037-.047a.625.625 0 0 0 .071-.173.95.95 0 0 0 .032-.258c-.006-.268.014-.51.061-.726.047-.215.1-.378.16-.487a1.17 1.17 0 0 1 .361-.412.558.558 0 0 1 .074-.033c.15-.05.327-.002.53.145a3.1 3.1 0 0 1 .572.544c.178.215.392.457.642.726.25.269.468.468.656.6l.187.112c.125.075.288.144.488.206.199.063.374.079.524.047l2.399-.037c.238 0 .422-.039.553-.117.132-.078.21-.165.235-.258a.724.724 0 0 0 .004-.319 1.237 1.237 0 0 0-.065-.248z"/></g></svg>