<svg xmlns="http://www.w3.org/2000/svg">
  <symbol id="email.svg" viewBox="0 0 24 24">
    <path fill="currentColor"
          d=" M 20 5.5 L 4 5.5 C 3.336 5.533 3.013 5.889 3 6.538 L 12 13.704 L 21 6.628 C 20.961 5.918 20.638 5.552 20 5.5 Z  M 3 7.452 L 3 18 C 3.011 18.501 3.071 18.525 4 18.5 L 20 18.5 C 20.946 18.477 20.958 18.489 21 18 L 21 7.543 L 12.225 14.449 C 12.161 14.499 12.082 14.527 12 14.528 C 11.918 14.528 11.839 14.5 11.775 14.449 L 3 7.452 Z "
          fill-rule="evenodd"/>
  </symbol>
  <symbol id="github.svg" viewBox="0 0 24 24">
    <path fill="currentColor"
          d=" M 12 2 C 9.477 1.999 7.057 3.001 5.272 4.785 C 3.488 6.57 2.486 8.99 2.487 11.513 C 2.485 15.608 5.106 19.245 8.992 20.538 C 9.467 20.621 9.646 20.336 9.646 20.086 C 9.646 19.86 9.634 19.111 9.634 18.314 C 7.244 18.754 6.625 17.732 6.435 17.196 C 6.328 16.923 5.864 16.079 5.46 15.853 C 5.127 15.674 4.651 15.234 5.448 15.223 C 6.197 15.211 6.732 15.912 6.911 16.198 C 7.767 17.636 9.134 17.232 9.681 16.982 C 9.765 16.364 10.014 15.948 10.288 15.71 C 8.171 15.472 5.959 14.652 5.959 11.013 C 5.946 10.068 6.295 9.153 6.935 8.457 C 6.839 8.219 6.506 7.244 7.03 5.936 C 7.03 5.936 7.826 5.686 9.646 6.911 C 10.42 6.696 11.22 6.588 12.024 6.59 C 12.828 6.588 13.628 6.696 14.402 6.911 C 16.221 5.674 17.018 5.936 17.018 5.936 C 17.541 7.244 17.208 8.219 17.113 8.457 C 17.719 9.123 18.088 9.967 18.088 11.013 C 18.088 14.664 15.865 15.472 13.748 15.71 C 14.093 16.007 14.39 16.578 14.39 17.47 C 14.39 18.742 14.378 19.765 14.378 20.086 C 14.378 20.336 14.557 20.633 15.032 20.538 C 18.904 19.231 21.512 15.6 21.513 11.513 C 21.514 8.99 20.512 6.57 18.728 4.785 C 16.943 3.001 14.523 1.999 12 2 L 12 2 Z "
          fill-rule="evenodd"/>
  </symbol>
  <symbol id="phone.svg" viewBox="0 0 24 24">
    <path fill="currentColor"
          d=" M 20.023 15.488 C 19.393 15.473 18.6 15.436 18.099 15.348 C 17.54 15.239 16.988 15.097 16.446 14.923 C 16.086 14.812 15.694 14.909 15.427 15.176 L 13.21 17.38 C 11.808 16.65 10.527 15.708 9.412 14.588 C 8.292 13.473 7.35 12.192 6.62 10.79 L 8.824 8.572 C 9.09 8.305 9.189 7.913 9.077 7.553 C 8.935 7.095 8.748 6.443 8.653 5.901 C 8.564 5.4 8.528 4.607 8.512 3.977 C 8.499 3.433 8.054 2.999 7.51 3 L 4 3 C 3.562 3 3 3.328 3 4 C 3 8.539 4.84 12.874 7.966 16.034 C 11.126 19.16 15.461 21 20 21 C 20.672 21 21 20.438 21 20 L 21 16.49 C 21.001 15.946 20.567 15.501 20.023 15.488 L 20.023 15.488 Z "/>
  </symbol>
  <symbol id="location.svg" viewBox="0 0 16 24">
    <path fill="currentColor"
          d=" M 12 0 C 7.509 0 3.855 3.654 3.855 8.145 C 3.855 9.95 4.918 12.695 7.199 16.783 C 8.198 18.566 9.256 20.315 10.371 22.028 L 11.491 23.726 C 11.604 23.897 11.795 24.001 12.001 24.001 C 12.206 24.001 12.397 23.897 12.51 23.726 L 13.63 22.028 C 13.694 21.93 15.233 19.594 16.801 16.783 C 19.083 12.695 20.145 9.95 20.145 8.145 C 20.145 3.654 16.491 0 12 0 Z  M 15.736 16.188 C 14.752 17.945 13.71 19.669 12.611 21.356 L 12 22.282 L 11.39 21.356 C 10.292 19.668 9.249 17.945 8.265 16.188 C 6.149 12.396 5.076 9.69 5.076 8.145 C 5.08 4.323 8.178 1.225 12 1.221 C 15.818 1.221 18.925 4.327 18.925 8.145 C 18.925 9.69 17.852 12.396 15.736 16.188 Z  M 12 3.578 C 9.507 3.581 7.487 5.601 7.484 8.094 C 7.487 10.587 9.507 12.607 12 12.61 C 14.493 12.607 16.513 10.587 16.516 8.094 C 16.513 5.601 14.493 3.581 12 3.578 L 12 3.578 Z  M 12 11.39 C 10.181 11.387 8.707 9.913 8.705 8.094 C 8.707 6.275 10.181 4.801 12 4.799 C 13.819 4.801 15.293 6.275 15.296 8.094 C 15.294 9.913 13.819 11.388 12 11.39 L 12 11.39 Z "
          fill-rule="evenodd"/>
  </symbol>
  <symbol id="merge.svg" viewBox="0 0 70.25 70.25">
    <path fill="none" stroke="currentColor" stroke-linecap="square" stroke-miterlimit="1" stroke-width="1"
          d="M0 70C0 27.75 70.25 45 70 0"/>
  </symbol>
</svg>
